Coordinates
version=1
nRows=4
nColumns=107
inDegrees=yes

Units are S.I. units (second, meters, Newtons, ...)
If the header above contains a line with 'inDegrees', this indicates whether rotational values are in degrees (yes) or radians (no).

endheader
time	sternoclavicular_r2	sternoclavicular_r3	unrotscap_r3	unrotscap_r2	acromioclavicular_r2	acromioclavicular_r3	acromioclavicular_r1	unrothum_r1	unrothum_r3	unrothum_r2	elv_angle	shoulder_elv	shoulder1_r2	shoulder_rot	elbow_flexion	pro_sup	deviation	flexion	proximal_distal_r1	proximal_distal_r3	cmc_flexion	cmc_abduction	mp_flexion	ip_flexion	mcp2_flexion	mcp2_abduction	pm2_flexion	md2_flexion	mcp3_flexion	mcp3_abduction	pm3_flexion	md3_flexion	mcp4_flexion	mcp4_abduction	pm4_flexion	md4_flexion	mcp5_flexion	mcp5_abduction	pm5_flexion	md5_flexion	bicpt_tx	bicpt_ty	bicpt_tz	bicpt2_tx	bicpt2_ty	bicpt2_tz	ptpt_tx	ptpt_ty	ptpt_tz	FCUpt_tx	FCUpt_ty	FCUpt_tz	EDCpt_tx	EDCpt_ty	EDCpt_tz	APLpt_tx	APLpt_ty	APLpt_tz	FPLpt_tx	FPLpt_ty	FPLpt_tz	FPLpt2_tx	FPLpt2_ty	FPLpt2_tz	PEC1pt2_tx	PEC1pt2_ty	PEC1pt2_tz	PEC1pt3_tx	PEC1pt3_ty	PEC1pt3_tz	PEC2pt2_tx	PEC2pt2_ty	PEC2pt2_tz	PEC2pt3_tx	PEC2pt3_ty	PEC2pt3_tz	PEC3pt2_tx	PEC3pt2_ty	PEC3pt2_tz	PEC3pt3_tx	PEC3pt3_ty	PEC3pt3_tz	DELT2pt2a_tx	DELT2pt2a_ty	DELT2pt2a_tz	DELT2pt2_tx	DELT2pt2_ty	DELT2pt2_tz	LAT1pt2_tx	LAT1pt2_ty	LAT1pt2_tz	LAT1pt3_tx	LAT1pt3_ty	LAT1pt3_tz	LAT2pt2_tx	LAT2pt2_ty	LAT2pt2_tz	LAT2pt3_tx	LAT2pt3_ty	LAT2pt3_tz	LAT3pt2_tx	LAT3pt2_ty	LAT3pt2_tz	LAT3pt3_tx	LAT3pt3_ty	LAT3pt3_tz
      0.00000000	     -0.32932380	      0.13948602	     -0.13948602	      0.32932380	     -0.06668137	      0.53889539	      0.24222977	     -0.24222977	     -0.53889539	      0.06668137	     98.21568033	     77.97033806	     -1.71418700	    -17.08425115	     28.67215836	     36.62348243	      0.20003442	      0.11285596	      0.23872332	      0.05642798	     37.28940862	     -2.94236398	      7.49238272	      9.76068998	     -6.86794866	     13.56106162	      7.54379890	    -32.09270565	    -19.12543447	      0.05762640	      8.01435941	     11.46006771	    -21.41815374	     -6.48967320	    -10.93982189	     19.18527085	    -32.94527910	    -14.20533100	     -7.51949889	      4.93380983	      0.00084839	     -0.03088627	     -0.00482933	      0.01655506	     -0.01798893	     -0.00782249	      0.00484394	     -0.06664978	     -0.00300022	      0.00744205	     -0.18356368	     -0.00035816	     -0.00439481	      0.00124465	      0.00016757	     -0.00012613	     -0.00005045	     -0.00025227	     -0.00016145	     -0.00048435	     -0.00027245	     -0.00001260	     -0.00015974	     -0.00019168	      0.00255570	      0.00896660	      0.00623763	     -0.00836016	      0.02018567	     -0.01914607	      0.00255570	      0.00896660	      0.00623763	      0.00056312	      0.01871290	     -0.00983293	      0.00401561	      0.00498621	      0.01613067	      0.00000000	      0.00813309	      0.00000000	     -0.00732055	     -0.03383049	     -0.00670801	      0.01203686	     -0.00034412	     -0.00235465	     -0.00090965	      0.01524755	     -0.00623763	      0.00251238	      0.02200498	     -0.01819309	     -0.00610768	      0.01321165	     -0.00558788	     -0.01273517	      0.02789608	     -0.03123148	     -0.02391092	      0.01477106	     -0.00749382	     -0.01585398	      0.03222777	     -0.03902852
      0.03333333	     -0.32952024	      0.13956922	     -0.13956922	      0.32952024	     -0.06672115	      0.53921684	      0.24237426	     -0.24237426	     -0.53921684	      0.06672115	     98.18275076	     78.01684691	     -1.71361227	    -16.93213809	     28.72698743	     36.70640466	      0.20647508	      0.12305134	      0.24532147	      0.06152567	     37.47608053	     -3.45230707	      8.08856274	      8.03106731	     -7.21947588	     13.57675969	      7.42971164	    -30.06024848	    -19.02485877	     -0.11508071	      7.79978738	     11.71401406	    -20.83035152	     -6.54394336	    -11.87289358	     19.09205737	    -33.08742503	    -14.18425776	     -8.16773471	      4.96530286	      0.00085020	     -0.03089255	     -0.00483034	      0.01655587	     -0.01800383	     -0.00781404	      0.00483781	     -0.06665375	     -0.00300690	      0.00745031	     -0.18356204	     -0.00035896	     -0.00440476	      0.00124793	      0.00016713	     -0.00013855	     -0.00005542	     -0.00027710	     -0.00017735	     -0.00053204	     -0.00029927	     -0.00001254	     -0.00015668	     -0.00018802	      0.00255722	      0.00897194	      0.00624135	     -0.00836515	      0.02019771	     -0.01915749	      0.00255722	      0.00897194	      0.00624135	      0.00056346	      0.01872406	     -0.00983880	      0.00401734	      0.00498918	      0.01613477	      0.00000000	      0.00814287	      0.00000000	     -0.00732492	     -0.03385067	     -0.00671613	      0.01194303	     -0.00033964	     -0.00230925	     -0.00091020	      0.01525664	     -0.00624135	      0.00251388	      0.02201811	     -0.01820395	     -0.00611132	      0.01321953	     -0.00559121	     -0.01274276	      0.02791272	     -0.03125011	     -0.02392519	      0.01477987	     -0.00749829	     -0.01586344	      0.03224699	     -0.03905180
      0.06666667	     -0.32962333	      0.13961288	     -0.13961288	      0.32962333	     -0.06674202	      0.53938552	      0.24245008	     -0.24245008	     -0.53938552	      0.06674202	     98.18171945	     78.04125316	     -1.71359427	    -16.93947475	     28.72934775	     36.70444941	      0.20650247	      0.12301720	      0.24534910	      0.06150860	     37.47615046	     -3.45403618	      8.08829392	      8.03128327	     -7.21996226	     13.57674551	      7.42982471	    -30.06035581	    -19.02612920	     -0.11565397	      7.79993601	     11.71395639	    -20.83011217	     -6.54380132	    -11.87277104	     19.09204026	    -33.08970077	    -14.18397329	     -8.16835986	      4.96528656	      0.00085028	     -0.03089282	     -0.00483039	      0.01655583	     -0.01800447	     -0.00781422	      0.00483796	     -0.06665365	     -0.00300674	      0.00745012	     -0.18356208	     -0.00035894	     -0.00440452	      0.00124786	      0.00016714	     -0.00013854	     -0.00005541	     -0.00027707	     -0.00017733	     -0.00053198	     -0.00029924	     -0.00001253	     -0.00015665	     -0.00018798	      0.00255802	      0.00897475	      0.00624331	     -0.00836776	      0.02020403	     -0.01916348	      0.00255802	      0.00897475	      0.00624331	      0.00056363	      0.01872992	     -0.00984188	      0.00401825	      0.00499075	      0.01613692	      0.00000000	      0.00814800	      0.00000000	     -0.00732721	     -0.03386126	     -0.00672039	      0.01194752	     -0.00033985	     -0.00231148	     -0.00091048	      0.01526141	     -0.00624331	      0.00251466	      0.02202499	     -0.01820964	     -0.00611324	      0.01322367	     -0.00559296	     -0.01274675	      0.02792145	     -0.03125988	     -0.02393267	      0.01478449	     -0.00750064	     -0.01586840	      0.03225708	     -0.03906402
      0.10000000	     -0.32866957	      0.13920892	     -0.13920892	      0.32866957	     -0.06654890	      0.53782482	      0.24174855	     -0.24174855	     -0.53782482	      0.06654890	     98.36128471	     77.81544216	     -1.71672827	    -17.82584225	     28.62949554	     36.58188651	      0.18749070	      0.07511156	      0.22567852	      0.03755578	     37.24991716	     -3.78814734	      7.58770636	      8.43685650	     -6.31700691	     13.52476382	      7.69007863	    -31.36016554	    -18.60955543	     -0.40014276	      7.79625110	     11.43929359	    -20.29221819	     -6.58204812	    -12.46760121	     19.15233887	    -33.81283368	    -14.16241170	     -8.18129909	      5.03405249	      0.00084697	     -0.03088138	     -0.00482854	      0.01655466	     -0.01797734	     -0.00782673	      0.00484701	     -0.06664780	     -0.00299687	      0.00743791	     -0.18356451	     -0.00035776	     -0.00438982	      0.00124300	      0.00016779	     -0.00008157	     -0.00003263	     -0.00016315	     -0.00010441	     -0.00031324	     -0.00017620	     -0.00001262	     -0.00016038	     -0.00019246	      0.00255062	      0.00894878	      0.00622524	     -0.00834355	      0.02014557	     -0.01910803	      0.00255062	      0.00894878	      0.00622524	      0.00056200	      0.01867572	     -0.00981340	      0.00400984	      0.00497630	      0.01611697	      0.00000000	      0.00810057	      0.00000000	     -0.00730601	     -0.03376328	     -0.00668103	      0.01249004	     -0.00036612	     -0.00258140	     -0.00090785	      0.01521725	     -0.00622524	      0.00250739	      0.02196127	     -0.01815695	     -0.00609555	      0.01318541	     -0.00557678	     -0.01270987	      0.02784066	     -0.03116943	     -0.02386342	      0.01474172	     -0.00747893	     -0.01582249	      0.03216374	     -0.03895098
